{"glyphs":{"0":{"ha":791,"x_min":60,"x_max":731,"o":"m 60 509 q 395 1017 60 1017 q 731 509 731 1017 q 395 0 731 0 q 60 509 60 0 m 629 509 q 395 916 629 916 q 161 509 161 916 q 395 102 161 102 q 629 509 629 102 z "},"1":{"ha":646,"x_min":153,"x_max":533,"o":"m 292 795 l 153 795 l 153 859 q 317 1017 297 859 l 394 1017 l 394 102 l 533 102 l 533 0 l 153 0 l 153 102 l 292 102 l 292 795 z "},"2":{"ha":766,"x_min":74,"x_max":705,"o":"m 412 489 q 603 714 603 572 q 389 916 603 916 q 176 714 176 916 l 74 714 q 389 1017 74 1017 q 705 714 705 1017 q 446 391 705 503 l 316 335 q 176 102 176 277 l 705 102 l 705 0 l 74 0 l 74 102 q 282 433 74 345 l 412 489 z "},"3":{"ha":775,"x_min":66,"x_max":696,"o":"m 381 584 q 574 750 574 584 q 381 916 574 916 q 188 750 188 916 l 86 750 q 381 1017 86 1017 q 676 751 676 1017 q 584 536 676 602 q 696 292 696 467 q 381 0 696 0 q 66 294 66 0 l 168 294 q 381 102 168 102 q 595 294 595 102 q 381 485 595 485 l 328 485 l 328 584 l 381 584 z "},"4":{"ha":740,"x_min":27,"x_max":705,"o":"m 473 835 l 150 352 l 473 352 l 473 835 m 473 1017 l 575 1017 l 575 352 l 705 352 l 705 250 l 575 250 l 575 0 l 473 0 l 473 250 l 27 250 l 27 352 l 473 1017 z "},"5":{"ha":777,"x_min":84,"x_max":705,"o":"m 705 339 q 408 0 705 0 q 84 269 118 0 l 186 269 q 408 102 220 102 q 603 339 603 102 q 415 576 603 576 q 220 490 278 576 l 121 490 l 169 1017 l 657 1017 l 657 897 l 260 897 l 235 644 q 415 678 308 678 q 705 339 705 678 z "},"6":{"ha":734,"x_min":58,"x_max":688,"o":"m 165 389 q 373 102 194 102 q 587 322 587 102 q 373 543 587 543 q 165 389 195 543 m 373 0 q 58 509 58 0 q 407 1017 58 1017 q 688 779 688 1017 l 587 779 q 407 916 587 916 q 162 586 184 916 q 373 644 239 644 q 688 322 688 644 q 373 0 688 0 z "},"7":{"ha":748,"x_min":67,"x_max":698,"o":"m 698 916 l 336 0 l 227 0 l 589 916 l 67 916 l 67 1017 l 698 1017 l 698 916 z "},"8":{"ha":731,"x_min":50,"x_max":681,"o":"m 366 916 q 172 746 172 916 q 366 576 172 576 q 559 746 559 576 q 366 916 559 916 m 366 475 q 152 288 152 475 q 366 102 152 102 q 579 288 579 102 q 366 475 579 475 m 161 529 q 71 746 71 595 q 366 1017 71 1017 q 661 746 661 1017 q 570 529 661 595 q 681 288 681 459 q 366 0 681 0 q 50 288 50 0 q 161 529 50 459 z "},"9":{"ha":734,"x_min":45,"x_max":676,"o":"m 569 629 q 361 916 540 916 q 147 695 147 916 q 361 475 147 475 q 569 629 539 475 m 361 1017 q 676 509 676 1017 q 327 0 676 0 q 45 239 45 0 l 147 239 q 327 102 147 102 q 572 431 549 102 q 361 373 495 373 q 45 695 45 373 q 361 1017 45 1017 z "}," ":{"ha":386,"x_min":0,"x_max":0,"o":""},"!":{"ha":591,"x_min":305,"x_max":422,"o":"m 415 1013 l 415 543 l 388 233 l 340 233 l 313 543 l 313 1013 l 415 1013 m 422 144 l 422 0 l 305 0 l 305 144 l 422 144 z "},"\"":{"ha":493,"x_min":72,"x_max":423,"o":"m 72 985 l 201 985 l 201 831 l 163 644 l 109 644 l 72 831 l 72 985 m 294 985 l 423 985 l 423 831 l 386 644 l 332 644 l 294 831 l 294 985 z "},"#":{"ha":772,"x_min":19,"x_max":752,"o":"m 673 968 l 623 696 l 752 696 l 752 602 l 605 602 l 562 359 l 708 359 l 708 265 l 545 265 l 491 -27 l 386 -27 l 438 265 l 267 265 l 212 -27 l 106 -27 l 159 265 l 19 265 l 19 359 l 177 359 l 220 602 l 71 602 l 71 696 l 239 696 l 288 968 l 394 968 l 344 696 l 517 696 l 566 968 l 673 968 m 500 602 l 328 602 l 283 359 l 456 359 l 500 602 z "},"$":{"ha":772,"x_min":47,"x_max":722,"o":"m 340 1069 l 422 1069 l 422 994 q 662 852 597 982 q 691 734 688 800 l 691 721 l 582 721 q 501 875 581 828 q 440 896 473 890 q 422 897 431 897 l 422 551 q 604 485 561 509 q 722 271 722 418 q 627 41 722 126 q 594 17 612 28 q 422 -32 526 -23 l 422 -175 l 340 -175 l 340 -32 q 66 144 126 -18 q 47 264 47 199 q 48 289 47 277 l 158 289 q 187 153 168 186 q 193 143 190 149 q 340 64 241 77 l 340 441 q 165 514 211 481 q 66 717 66 585 q 260 978 66 920 q 340 994 297 989 l 340 1069 m 340 562 l 340 896 q 183 772 207 878 q 179 730 179 753 q 340 562 179 606 m 422 429 l 422 64 q 549 115 507 74 q 608 254 608 171 q 543 380 608 339 q 422 429 503 406 z "},"%":{"ha":1234,"x_min":40,"x_max":1193,"o":"m 276 951 q 464 860 393 951 l 489 821 q 513 711 513 770 q 426 530 513 602 q 277 476 361 476 q 93 564 165 476 q 40 714 40 631 q 127 899 40 827 q 276 951 193 951 m 276 854 q 159 790 201 854 l 143 758 q 136 714 136 736 q 198 597 136 640 q 277 574 235 574 q 394 636 353 574 q 418 713 418 671 q 351 833 418 791 q 276 854 318 854 m 846 985 l 937 985 l 389 -27 l 297 -27 l 846 985 m 956 447 q 1144 355 1074 447 q 1193 208 1193 292 q 1105 28 1193 98 q 957 -26 1040 -26 q 772 61 844 -26 q 719 211 719 127 q 808 395 719 323 q 956 447 873 447 m 956 350 q 839 288 880 350 q 815 211 815 253 q 880 93 815 135 q 957 71 915 71 q 1074 134 1031 71 q 1097 208 1097 168 q 1030 329 1097 288 l 998 343 q 956 350 977 350 z "},"&":{"ha":926,"x_min":72,"x_max":884,"o":"m 684 464 l 795 464 q 715 210 795 334 l 884 0 l 733 0 l 647 109 q 540 18 579 41 q 357 -32 462 -32 q 118 82 195 -32 q 72 244 72 150 q 144 431 72 357 q 297 541 194 481 q 187 729 199 663 q 184 766 184 747 q 275 939 184 873 q 422 985 338 985 q 611 893 547 985 l 631 854 q 647 791 644 825 q 648 766 648 779 q 572 603 648 671 q 456 525 532 567 l 642 298 q 684 458 684 374 l 684 464 m 395 599 q 529 721 508 669 q 538 770 538 742 q 476 873 538 842 q 418 888 450 888 q 307 818 334 888 q 298 768 298 796 q 333 673 298 722 l 395 599 m 581 191 l 358 468 q 199 315 227 385 q 189 254 189 288 q 264 111 189 164 q 370 77 312 77 q 558 167 464 77 q 581 191 569 178 z "},"'":{"ha":265,"x_min":66,"x_max":197,"o":"m 66 985 l 197 985 l 197 831 l 159 644 l 104 644 l 66 831 l 66 985 z "},"(":{"ha":777,"x_min":170,"x_max":472,"o":"m 396 1013 l 472 1013 q 283 416 300 734 q 282 359 282 387 q 452 -259 282 36 q 472 -294 461 -277 l 396 -294 q 188 178 239 -89 q 170 359 170 272 q 298 857 170 608 q 396 1013 342 942 z "},")":{"ha":777,"x_min":305,"x_max":608,"o":"m 382 -294 l 305 -294 q 494 301 477 -16 q 496 358 496 330 q 326 978 496 682 q 305 1013 316 996 l 382 1013 q 590 541 538 807 q 608 358 608 446 q 479 -138 608 110 q 382 -294 436 -223 z "},"*":{"ha":896,"x_min":305,"x_max":726,"o":"m 472 1013 l 559 1013 l 553 857 l 700 909 l 726 828 l 576 786 l 673 663 l 602 612 l 516 742 l 429 612 l 359 663 l 455 786 l 305 828 l 332 909 l 479 857 l 472 1013 z "},"+":{"ha":811,"x_min":69,"x_max":741,"o":"m 741 371 l 741 273 l 454 273 l 454 -14 l 357 -14 l 357 273 l 69 273 l 69 371 l 357 371 l 357 659 l 454 659 l 454 371 l 741 371 z "},",":{"ha":386,"x_min":121,"x_max":267,"o":"m 121 144 l 267 144 l 267 -22 q 121 -204 267 -204 l 121 -151 q 195 -105 180 -149 q 204 -24 204 -79 l 204 0 l 121 0 l 121 144 z "},"-":{"ha":462,"x_min":64,"x_max":394,"o":"m 394 433 l 394 334 l 64 334 l 64 433 l 394 433 z "},".":{"ha":386,"x_min":121,"x_max":265,"o":"m 265 144 l 265 0 l 121 0 l 121 144 l 265 144 z "},"/":{"ha":386,"x_min":-11,"x_max":395,"o":"m 318 1013 l 395 1013 l 66 -27 l -11 -27 l 318 1013 z "},":":{"ha":386,"x_min":153,"x_max":297,"o":"m 297 144 l 297 0 l 153 0 l 153 144 l 297 144 m 297 728 l 297 583 l 153 583 l 153 728 l 297 728 z "},";":{"ha":386,"x_min":153,"x_max":298,"o":"m 298 728 l 298 583 l 154 583 l 154 728 l 298 728 m 153 144 l 298 144 l 298 -22 q 153 -204 298 -204 l 153 -151 q 227 -105 212 -149 q 236 -24 236 -79 l 236 0 l 153 0 l 153 144 z "},"<":{"ha":811,"x_min":62,"x_max":741,"o":"m 62 275 l 62 371 l 741 659 l 741 549 l 195 325 l 741 97 l 741 -12 l 62 275 z "},"=":{"ha":811,"x_min":69,"x_max":741,"o":"m 741 490 l 741 393 l 69 393 l 69 490 l 741 490 m 741 252 l 741 154 l 69 154 l 69 252 l 741 252 z "},">":{"ha":811,"x_min":69,"x_max":748,"o":"m 748 371 l 748 275 l 69 -12 l 69 97 l 616 321 l 69 549 l 69 659 l 748 371 z "},"?":{"ha":1075,"x_min":305,"x_max":905,"o":"m 656 277 l 532 277 l 532 353 q 570 473 532 422 q 643 550 594 504 q 676 579 652 558 q 780 762 779 671 q 695 901 780 860 l 652 916 q 602 921 629 921 q 447 840 488 921 q 423 704 423 793 l 305 704 q 368 931 305 850 q 555 1026 431 1012 q 610 1029 582 1029 q 862 914 785 1029 l 884 872 q 905 762 905 822 q 834 583 905 665 q 766 514 808 551 q 665 396 679 433 q 656 342 656 375 l 656 277 m 656 144 l 656 0 l 532 0 l 532 144 l 656 144 z "},"@":{"ha":1409,"x_min":47,"x_max":1320,"o":"m 923 696 l 1038 696 l 913 307 q 897 237 897 258 q 937 182 897 200 q 966 176 951 176 q 1128 277 1055 176 q 1200 496 1200 375 q 1065 786 1200 663 q 732 922 927 914 l 711 922 q 349 781 507 922 l 302 733 q 165 379 165 576 q 311 49 165 183 q 686 -90 460 -90 q 954 -45 795 -90 l 993 -138 q 679 -197 837 -197 q 247 -48 429 -197 q 51 294 77 90 q 47 358 47 326 q 179 753 47 572 q 267 850 218 807 q 626 1021 416 986 q 729 1029 677 1029 q 1130 889 960 1029 q 1316 571 1291 758 q 1320 513 1320 542 q 1201 203 1320 345 q 943 79 1095 79 q 790 186 809 79 q 593 86 699 86 q 414 182 479 86 q 366 340 366 250 q 476 608 366 492 q 723 725 583 724 q 892 604 840 725 l 923 696 m 715 636 q 554 538 623 636 q 491 339 491 450 q 557 199 491 245 q 629 175 590 175 q 770 265 709 175 q 838 449 817 332 q 846 503 844 479 l 846 512 q 789 616 846 581 q 715 636 755 636 z "},"ក":{"ha":882,"x_min":102,"x_max":780,"o":"m 102 848 l 102 1017 l 780 1017 l 780 848 l 102 848 m 543 0 l 543 576 l 339 576 l 339 0 l 102 0 l 102 576 q 271 746 102 746 l 610 746 q 780 576 780 746 l 780 0 l 543 0 z "},"ខ":{"ha":882,"x_min":102,"x_max":780,"o":"m 543 407 l 780 407 l 780 170 q 610 0 780 0 l 271 0 q 102 170 102 0 l 102 454 l 339 523 q 543 712 543 592 l 543 848 l 339 848 l 339 746 l 373 746 l 373 610 l 203 610 q 102 678 102 610 l 102 848 q 271 1017 102 1017 l 610 1017 q 780 848 780 1017 l 780 712 q 390 397 766 513 l 339 379 l 339 170 l 543 170 l 543 407 z "},"គ":{"ha":882,"x_min":102,"x_max":780,"o":"m 102 848 l 102 1017 l 780 1017 l 780 848 l 102 848 m 780 0 l 543 0 l 543 576 l 339 576 l 339 233 l 406 357 l 496 308 l 339 18 l 339 0 l 102 0 l 102 576 q 271 746 102 746 l 610 746 q 780 576 780 746 l 780 0 z "},"ឃ":{"ha":1322,"x_min":34,"x_max":1221,"o":"m 102 848 l 34 848 l 34 1017 l 339 1017 l 339 170 l 543 170 l 543 678 l 441 785 l 576 1017 l 780 1017 l 780 848 l 583 848 l 780 678 l 780 170 l 983 170 l 983 678 l 882 785 l 1017 1017 l 1221 1017 l 1221 848 l 1024 848 l 1221 678 l 1221 170 q 1051 0 1221 0 l 271 0 q 102 170 102 0 l 102 848 z "},"ង":{"ha":882,"x_min":68,"x_max":780,"o":"m 271 746 q 102 882 102 746 l 102 1085 l 339 1085 l 339 882 l 536 882 l 536 1017 l 780 1017 l 780 882 q 760 814 780 846 q 703 764 740 782 q 665 750 684 755 l 780 678 l 780 0 l 543 0 l 441 99 l 339 0 l 102 0 l 102 543 l 68 543 l 68 678 l 339 678 l 339 199 l 441 298 l 543 199 l 543 746 l 271 746 z "},"ច":{"ha":882,"x_min":0,"x_max":780,"o":"m 102 678 l 0 785 l 136 1017 l 780 1017 l 780 848 l 142 848 l 339 678 l 339 170 l 543 170 l 543 610 l 475 610 l 475 746 l 780 746 l 780 170 q 610 0 780 0 l 271 0 q 102 170 102 0 l 102 678 z "},"ឆ":{"ha":882,"x_min":0,"x_max":780,"o":"m 102 678 l 0 785 l 136 1017 l 780 1017 l 780 848 l 142 848 l 339 678 l 339 339 l 543 183 l 543 610 l 475 610 l 475 746 l 780 746 l 780 0 l 543 0 l 339 156 l 339 0 l 102 0 l 102 170 l 34 170 l 34 339 l 102 339 l 102 678 z "},"ជ":{"ha":882,"x_min":0,"x_max":780,"o":"m 543 746 l 780 746 l 780 0 l 543 0 l 441 99 l 339 0 l 102 0 l 102 678 l 0 785 l 136 1017 l 543 1017 l 543 1085 l 780 1085 l 780 848 l 142 848 l 339 678 l 339 199 l 441 298 l 543 199 l 543 746 z "},"ឈ":{"ha":1763,"x_min":102,"x_max":1662,"o":"m 780 170 l 983 170 l 983 678 l 882 785 l 1017 1017 l 1221 1017 l 1221 848 l 1024 848 l 1221 678 l 1221 170 l 1424 170 l 1424 678 l 1322 785 l 1458 1017 l 1662 1017 l 1662 848 l 1465 848 l 1662 678 l 1662 170 q 1492 0 1662 0 l 712 0 q 543 170 543 0 l 543 848 l 339 848 l 339 170 l 407 170 l 407 0 l 102 0 l 102 848 q 271 1017 102 1017 l 610 1017 q 780 848 780 1017 l 780 170 z "},"ញ":{"ha":1322,"x_min":102,"x_max":1221,"o":"m 102 -136 l 271 -136 q 783 -339 507 -136 l 983 -339 l 983 -237 l 882 -237 l 882 -68 l 1085 -68 q 1221 -203 1221 -68 l 1221 -339 q 1085 -475 1221 -475 l 686 -475 q 271 -305 439 -305 l 102 -305 l 102 -136 m 983 0 l 983 848 l 814 848 l 814 1017 l 1221 1017 l 1221 0 l 983 0 m 339 170 l 407 170 l 407 0 l 102 0 l 102 1017 l 339 1017 l 441 918 l 543 1017 l 780 1017 l 780 0 l 543 0 l 543 819 l 441 720 l 339 819 l 339 170 z "},"ដ":{"ha":882,"x_min":102,"x_max":780,"o":"m 102 1017 l 373 1017 l 373 949 l 339 949 l 339 916 l 543 916 l 543 1085 l 780 1085 l 780 882 q 644 780 780 780 l 102 780 l 102 1017 m 339 712 l 339 199 l 441 298 l 543 199 l 543 712 l 780 712 l 780 0 l 543 0 l 441 99 l 339 0 l 102 0 l 102 712 l 339 712 z "},"ឋ":{"ha":882,"x_min":34,"x_max":780,"o":"m 780 170 q 610 0 780 0 l 271 0 q 102 170 102 0 l 102 848 l 34 848 l 34 1017 l 339 1017 l 339 170 l 543 170 l 543 678 l 441 785 l 576 1017 l 678 1017 l 678 1085 l 780 1085 l 780 848 l 583 848 l 780 678 l 780 170 z "},"ឌ":{"ha":882,"x_min":102,"x_max":780,"o":"m 543 819 l 441 720 l 339 819 l 339 712 l 373 712 l 373 610 l 102 610 l 102 1017 l 339 1017 l 441 918 l 543 1017 l 780 1017 l 780 712 q 390 397 766 513 l 339 379 l 339 136 l 543 237 l 543 407 l 780 407 l 780 0 l 543 0 l 543 102 l 339 0 l 102 0 l 102 454 l 339 523 q 543 712 543 592 l 543 819 z "},"ឍ":{"ha":1322,"x_min":102,"x_max":1221,"o":"m 1221 0 l 983 0 l 780 156 l 780 0 l 543 0 l 543 170 l 475 170 l 475 339 l 543 339 l 543 819 l 441 720 l 339 819 l 339 170 l 407 170 l 407 0 l 102 0 l 102 1017 l 339 1017 l 441 918 l 543 1017 l 780 1017 l 780 339 l 983 183 l 983 678 l 882 785 l 1017 1017 l 1221 1017 l 1221 848 l 1024 848 l 1221 678 l 1221 0 z "},"ណ":{"ha":1763,"x_min":102,"x_max":1662,"o":"m 543 848 l 339 848 l 339 170 l 407 170 l 407 0 l 102 0 l 102 848 q 271 1017 102 1017 l 610 1017 q 780 848 780 1017 l 780 199 l 882 298 l 983 199 l 983 848 q 1153 1017 983 1017 l 1492 1017 q 1662 848 1662 1017 l 1662 0 l 1424 0 l 1424 848 l 1221 848 l 1221 0 l 983 0 l 882 99 l 780 0 l 543 0 l 543 848 z "},"ត":{"ha":882,"x_min":102,"x_max":780,"o":"m 102 848 l 102 1017 l 780 1017 l 780 848 l 102 848 m 102 576 q 271 746 102 746 l 610 746 q 780 576 780 746 l 780 0 l 543 0 l 543 576 l 339 576 l 339 170 l 407 170 l 407 0 l 102 0 l 102 576 z "},"ថ":{"ha":882,"x_min":0,"x_max":780,"o":"m 142 848 l 339 678 l 339 170 l 543 170 l 543 610 l 475 610 l 475 746 l 780 746 l 780 170 q 610 0 780 0 l 271 0 q 102 170 102 0 l 102 678 l 0 785 l 136 1017 l 543 1017 l 543 1085 l 780 1085 l 780 848 l 142 848 z "},"ទ":{"ha":882,"x_min":102,"x_max":780,"o":"m 780 712 q 678 644 780 644 l 509 644 l 509 780 l 543 780 l 543 848 l 339 848 l 339 678 q 486 557 339 591 l 578 536 q 623 576 592 551 l 780 576 l 780 437 q 710 366 780 388 l 780 332 l 780 170 q 610 0 780 0 l 271 0 q 102 170 102 0 l 102 420 l 339 373 l 339 170 l 543 170 l 543 397 l 340 448 q 102 678 102 500 l 102 848 q 271 1017 102 1017 l 610 1017 q 780 848 780 1017 l 780 712 z "},"ធ":{"ha":882,"x_min":0,"x_max":780,"o":"m 543 610 l 475 610 l 475 746 l 780 746 l 780 0 l 543 0 l 441 99 l 339 0 l 102 0 l 102 678 l 0 785 l 136 1017 l 780 1017 l 780 848 l 142 848 l 339 678 l 339 199 l 441 298 l 543 199 l 543 610 z "},"ន":{"ha":882,"x_min":102,"x_max":780,"o":"m 339 678 q 543 530 339 585 l 780 474 l 780 0 l 543 0 l 441 99 l 339 0 l 102 0 l 102 407 l 339 407 l 339 199 l 441 298 l 543 199 l 543 391 l 492 404 q 102 678 102 511 l 102 848 q 271 1017 102 1017 l 610 1017 q 780 848 780 1017 l 780 610 l 509 610 l 509 746 l 543 746 l 543 848 l 339 848 l 339 678 z "},"ប":{"ha":882,"x_min":0,"x_max":780,"o":"m 543 678 l 441 785 l 576 1017 l 780 1017 l 780 848 l 583 848 l 780 678 l 780 170 q 610 0 780 0 l 271 0 q 102 170 102 0 l 102 678 l 0 785 l 136 1017 l 339 1017 l 339 848 l 142 848 l 339 678 l 339 170 l 543 170 l 543 678 z "},"ផ":{"ha":882,"x_min":0,"x_max":780,"o":"m 142 848 l 339 678 l 339 199 l 441 298 l 543 199 l 543 610 l 475 610 l 475 746 l 780 746 l 780 0 l 543 0 l 441 99 l 339 0 l 102 0 l 102 678 l 0 785 l 136 1017 l 543 1017 l 543 1085 l 780 1085 l 780 848 l 142 848 z "},"ព":{"ha":882,"x_min":102,"x_max":780,"o":"m 339 170 l 407 170 l 407 0 l 102 0 l 102 1017 l 339 1017 l 441 918 l 543 1017 l 780 1017 l 780 0 l 543 0 l 543 819 l 441 720 l 339 819 l 339 170 z "},"ភ":{"ha":882,"x_min":34,"x_max":780,"o":"m 102 848 l 102 1017 l 780 1017 l 780 848 l 102 848 m 339 0 l 34 0 l 34 170 l 102 170 l 102 576 q 271 746 102 746 l 610 746 q 780 576 780 746 l 780 0 l 543 0 l 543 576 l 339 576 l 339 0 z "},"ម":{"ha":882,"x_min":0,"x_max":780,"o":"m 543 576 l 543 678 l 441 785 l 576 1017 l 780 1017 l 780 848 l 583 848 l 780 678 l 780 170 q 610 0 780 0 l 271 0 q 102 170 102 0 l 102 678 l 0 785 l 136 1017 l 339 1017 l 339 848 l 142 848 l 339 678 l 339 170 l 543 170 l 543 407 l 373 407 l 373 576 l 543 576 z "},"យ":{"ha":1322,"x_min":102,"x_max":1221,"o":"m 339 170 l 543 170 l 543 678 l 441 785 l 576 1017 l 780 1017 l 780 848 l 583 848 l 780 678 l 780 170 l 983 170 l 983 678 l 882 785 l 1017 1017 l 1221 1017 l 1221 848 l 1024 848 l 1221 678 l 1221 170 q 1051 0 1221 0 l 271 0 q 102 170 102 0 l 102 1017 l 407 1017 l 407 848 l 339 848 l 339 170 z "},"រ":{"ha":441,"x_min":0,"x_max":339,"o":"m 34 170 l 102 170 l 102 678 l 0 785 l 136 1017 l 339 1017 l 339 848 l 142 848 l 339 678 l 339 0 l 34 0 l 34 170 z "},"ល":{"ha":1322,"x_min":102,"x_max":1221,"o":"m 780 170 l 983 170 l 983 678 l 882 785 l 1017 1017 l 1221 1017 l 1221 848 l 1024 848 l 1221 678 l 1221 170 q 1051 0 1221 0 l 712 0 q 543 170 543 0 l 543 848 l 339 848 l 339 170 l 407 170 l 407 0 l 102 0 l 102 848 q 271 1017 102 1017 l 610 1017 q 780 848 780 1017 l 780 170 z "},"វ":{"ha":441,"x_min":0,"x_max":339,"o":"m 34 170 l 102 170 l 102 678 l 0 785 l 136 1017 l 237 1017 l 237 1085 l 339 1085 l 339 848 l 142 848 l 339 678 l 339 0 l 34 0 l 34 170 z "},"ឝ":{"ha":882,"x_min":102,"x_max":848,"o":"m 102 848 l 102 1017 l 780 1017 l 780 848 l 102 848 m 543 441 l 543 576 l 339 576 l 339 233 l 406 357 l 441 338 l 441 441 l 543 441 m 780 305 l 780 0 l 543 0 l 543 305 l 494 305 l 339 18 l 339 0 l 102 0 l 102 576 q 271 746 102 746 l 610 746 q 780 576 780 746 l 780 441 l 848 441 l 848 305 l 780 305 z "},"ឞ":{"ha":882,"x_min":0,"x_max":848,"o":"m 543 576 l 543 678 l 441 785 l 576 1017 l 780 1017 l 780 848 l 583 848 l 780 678 l 780 576 l 848 576 l 848 441 l 780 441 l 780 170 q 610 0 780 0 l 271 0 q 102 170 102 0 l 102 678 l 0 785 l 136 1017 l 339 1017 l 339 848 l 142 848 l 339 678 l 339 170 l 543 170 l 543 441 l 441 441 l 441 576 l 543 576 z "},"ស":{"ha":1322,"x_min":102,"x_max":1221,"o":"m 396 746 l 610 746 q 780 576 780 746 l 780 170 l 983 170 l 983 678 l 882 785 l 1017 1017 l 1221 1017 l 1221 848 l 1024 848 l 1221 678 l 1221 170 q 1051 0 1221 0 l 712 0 q 543 170 543 0 l 543 576 l 339 576 l 339 170 l 407 170 l 407 0 l 102 0 l 102 576 q 208 739 102 711 l 102 839 l 203 1017 l 678 1017 l 678 848 l 278 848 l 396 746 z "},"ហ":{"ha":1322,"x_min":0,"x_max":1221,"o":"m 780 170 q 610 0 780 0 l 271 0 q 102 170 102 0 l 102 678 l 0 785 l 136 1017 l 339 1017 l 339 848 l 142 848 l 339 678 l 339 170 l 543 170 l 543 848 q 712 1017 543 1017 l 1051 1017 q 1221 848 1221 1017 l 1221 0 l 983 0 l 983 848 l 780 848 l 780 170 z "},"ឡ":{"ha":1322,"x_min":102,"x_max":1221,"o":"m 780 712 q 678 644 780 644 l 509 644 l 509 780 l 543 780 l 543 848 l 339 848 l 339 678 q 486 557 339 591 l 578 536 q 623 576 592 551 l 780 576 l 780 437 q 710 366 780 388 l 780 332 l 780 170 q 610 0 780 0 l 271 0 q 102 170 102 0 l 102 420 l 339 373 l 339 170 l 543 170 l 543 397 l 340 448 q 102 678 102 500 l 102 848 q 271 1017 102 1017 l 610 1017 q 780 848 780 1017 l 780 712 m 1221 -475 l 983 -475 l 882 -376 l 780 -475 l 543 -475 l 543 -203 l 509 -203 l 509 -68 l 780 -68 l 780 -276 l 882 -177 l 983 -276 l 983 678 l 882 785 l 1017 1017 l 1221 1017 l 1221 848 l 1024 848 l 1221 678 l 1221 -475 z "},"អ":{"ha":882,"x_min":0,"x_max":780,"o":"m 543 407 l 373 407 l 373 576 l 543 576 l 543 678 l 441 785 l 576 1017 l 780 1017 l 780 848 l 583 848 l 780 678 l 780 0 l 475 0 l 475 170 l 543 170 l 543 407 m 102 678 l 0 785 l 136 1017 l 339 1017 l 339 848 l 142 848 l 339 678 l 339 0 l 34 0 l 34 170 l 102 170 l 102 678 z "},"ឣ":{"ha":882,"x_min":0,"x_max":780,"o":"m 543 407 l 373 407 l 373 576 l 543 576 l 543 678 l 441 785 l 576 1017 l 780 1017 l 780 848 l 583 848 l 780 678 l 780 0 l 475 0 l 475 170 l 543 170 l 543 407 m 102 678 l 0 785 l 136 1017 l 339 1017 l 339 848 l 142 848 l 339 678 l 339 0 l 34 0 l 34 170 l 102 170 l 102 678 z "},"ឤ":{"ha":1322,"x_min":0,"x_max":1221,"o":"m 102 678 l 0 785 l 136 1017 l 339 1017 l 339 848 l 142 848 l 339 678 l 339 0 l 34 0 l 34 170 l 102 170 l 102 678 m 543 407 l 373 407 l 373 576 l 543 576 l 543 678 l 441 785 l 576 1017 l 1051 1017 q 1221 848 1221 1017 l 1221 0 l 983 0 l 983 848 l 583 848 l 780 678 l 780 0 l 475 0 l 475 170 l 543 170 l 543 407 z "},"ឥ":{"ha":882,"x_min":102,"x_max":780,"o":"m 102 848 l 102 1017 l 543 1017 l 543 1085 l 780 1085 l 780 848 l 102 848 m 102 576 q 271 746 102 746 l 610 746 q 780 576 780 746 l 780 0 l 543 0 l 543 576 l 339 576 l 339 170 l 407 170 l 407 0 l 102 0 l 102 576 z "},"ឦ":{"ha":1322,"x_min":102,"x_max":1221,"o":"m 543 1560 l 780 1560 l 780 1322 l 1051 1322 q 1221 1187 1221 1322 l 1221 -373 q 1051 -475 1221 -475 l 746 -475 q 543 -373 543 -475 l 543 -170 l 339 -170 l 339 -305 l 407 -305 l 407 -475 l 136 -475 l 136 -170 q 339 -68 136 -68 l 543 -68 q 746 -170 746 -68 l 746 -373 l 983 -373 l 983 1187 l 780 1187 l 780 1119 l 543 1119 l 543 1560 m 339 170 l 407 170 l 407 0 l 102 0 l 102 848 q 271 1017 102 1017 l 610 1017 q 780 848 780 1017 l 780 0 l 543 0 l 543 848 l 339 848 l 339 170 z "},"ឧ":{"ha":882,"x_min":102,"x_max":780,"o":"m 780 -136 l 543 -136 l 543 0 l 271 0 q 102 170 102 0 l 102 454 l 339 523 q 543 712 543 592 l 543 848 l 339 848 l 339 746 l 373 746 l 373 610 l 203 610 q 102 678 102 610 l 102 848 q 271 1017 102 1017 l 610 1017 q 780 848 780 1017 l 780 712 q 390 397 766 513 l 339 379 l 339 170 l 543 170 l 543 407 l 780 407 l 780 -136 z "},"ឨ":{"ha":882,"x_min":102,"x_max":780,"o":"m 102 1119 l 102 1289 l 780 1289 l 780 1119 l 102 1119 m 780 -136 l 543 -136 l 543 0 l 271 0 q 102 170 102 0 l 102 454 l 339 523 q 543 712 543 592 l 543 848 l 339 848 l 339 746 l 373 746 l 373 610 l 203 610 q 102 678 102 610 l 102 848 q 271 1017 102 1017 l 610 1017 q 780 848 780 1017 l 780 712 q 390 397 766 513 l 339 379 l 339 170 l 543 170 l 543 407 l 780 407 l 780 -136 z "},"ឩ":{"ha":882,"x_min":102,"x_max":882,"o":"m 746 407 l 882 407 l 882 -136 l 746 -136 l 746 407 m 678 -136 l 543 -136 l 543 0 l 271 0 q 102 170 102 0 l 102 454 l 339 523 q 543 712 543 592 l 543 848 l 339 848 l 339 746 l 373 746 l 373 610 l 203 610 q 102 678 102 610 l 102 848 q 271 1017 102 1017 l 610 1017 q 780 848 780 1017 l 780 712 q 390 397 766 513 l 339 379 l 339 170 l 543 170 l 543 407 l 678 407 l 678 -136 z "},"ឪ":{"ha":882,"x_min":102,"x_max":780,"o":"m 102 1119 l 102 1289 l 543 1289 l 543 1356 l 780 1356 l 780 1119 l 102 1119 m 780 -136 l 543 -136 l 543 0 l 271 0 q 102 170 102 0 l 102 454 l 339 523 q 543 712 543 592 l 543 848 l 339 848 l 339 746 l 373 746 l 373 610 l 203 610 q 102 678 102 610 l 102 848 q 271 1017 102 1017 l 610 1017 q 780 848 780 1017 l 780 712 q 390 397 766 513 l 339 379 l 339 170 l 543 170 l 543 407 l 780 407 l 780 -136 z "},"ឫ":{"ha":882,"x_min":0,"x_max":780,"o":"m 102 -339 l 305 -339 q 543 -237 543 -339 l 441 -237 l 441 -68 l 780 -68 l 780 -237 q 305 -475 780 -475 l 102 -475 l 102 -339 m 543 678 l 441 785 l 576 1017 l 780 1017 l 780 848 l 583 848 l 780 678 l 780 170 q 610 0 780 0 l 271 0 q 102 170 102 0 l 102 678 l 0 785 l 136 1017 l 339 1017 l 339 848 l 142 848 l 339 678 l 339 170 l 543 170 l 543 678 z "},"ឬ":{"ha":882,"x_min":0,"x_max":882,"o":"m 764 -322 q 814 -339 785 -339 l 882 -339 l 882 -475 l 814 -475 q 665 -422 721 -475 q 305 -475 564 -475 l 102 -475 l 102 -339 l 305 -339 q 543 -237 543 -339 l 441 -237 l 441 -68 l 780 -68 l 780 -237 q 764 -322 780 -284 m 543 678 l 441 785 l 576 1017 l 780 1017 l 780 848 l 583 848 l 780 678 l 780 170 q 610 0 780 0 l 271 0 q 102 170 102 0 l 102 678 l 0 785 l 136 1017 l 339 1017 l 339 848 l 142 848 l 339 678 l 339 170 l 543 170 l 543 678 z "},"ឭ":{"ha":882,"x_min":102,"x_max":780,"o":"m 339 170 l 407 170 l 407 0 l 102 0 l 102 1017 l 339 1017 l 441 918 l 543 1017 l 780 1017 l 780 0 l 543 0 l 543 819 l 441 720 l 339 819 l 339 170 m 102 -339 l 305 -339 q 543 -237 543 -339 l 441 -237 l 441 -68 l 780 -68 l 780 -237 q 305 -475 780 -475 l 102 -475 l 102 -339 z "},"ឮ":{"ha":882,"x_min":102,"x_max":882,"o":"m 339 170 l 407 170 l 407 0 l 102 0 l 102 1017 l 339 1017 l 441 918 l 543 1017 l 780 1017 l 780 0 l 543 0 l 543 819 l 441 720 l 339 819 l 339 170 m 764 -322 q 814 -339 785 -339 l 882 -339 l 882 -475 l 814 -475 q 665 -422 721 -475 q 305 -475 564 -475 l 102 -475 l 102 -339 l 305 -339 q 543 -237 543 -339 l 441 -237 l 441 -68 l 780 -68 l 780 -237 q 764 -322 780 -284 z "},"ឯ":{"ha":882,"x_min":68,"x_max":780,"o":"m 780 0 l 543 0 l 441 99 l 339 0 l 102 0 l 102 543 l 68 543 l 68 678 l 339 678 l 339 199 l 441 298 l 543 199 l 543 848 l 339 848 l 339 780 l 102 780 l 102 1255 l 339 1255 l 339 1017 l 610 1017 q 780 848 780 1017 l 780 0 z "},"ឰ":{"ha":882,"x_min":102,"x_max":780,"o":"m 431 -212 q 290 -274 345 -254 q 340 -319 290 -319 q 431 -212 379 -319 m 442 -205 q 517 -305 492 -305 q 543 -251 543 -305 l 543 -138 q 442 -205 499 -176 m 780 -34 l 780 -271 q 625 -475 780 -475 q 452 -393 524 -475 q 246 -475 392 -475 q 102 -339 102 -475 l 102 -203 q 543 -34 375 -203 l 780 -34 m 339 170 l 407 170 l 407 0 l 102 0 l 102 1017 l 339 1017 l 441 918 l 543 1017 l 780 1017 l 780 0 l 543 0 l 543 819 l 441 720 l 339 819 l 339 170 z "},"ឱ":{"ha":882,"x_min":102,"x_max":780,"o":"m 780 1322 l 780 1085 l 543 1085 l 543 1153 l 102 1153 l 102 1322 l 780 1322 m 780 -136 l 543 -136 l 543 0 l 271 0 q 102 170 102 0 l 102 454 l 339 523 q 543 712 543 592 l 543 848 l 339 848 l 339 746 l 373 746 l 373 610 l 203 610 q 102 678 102 610 l 102 848 q 271 1017 102 1017 l 610 1017 q 780 848 780 1017 l 780 712 q 390 397 766 513 l 339 379 l 339 170 l 543 170 l 543 407 l 780 407 l 780 -136 z "},"ឲ":{"ha":882,"x_min":102,"x_max":780,"o":"m 543 278 q 475 339 543 339 l 475 475 l 610 531 l 610 576 l 475 576 l 475 746 l 780 746 l 780 418 l 678 393 q 780 305 780 359 l 780 170 q 610 0 780 0 l 271 0 q 102 170 102 0 l 102 848 q 271 1017 102 1017 l 780 1017 l 780 848 l 339 848 l 339 170 l 543 170 l 543 278 z "},"ឳ":{"ha":882,"x_min":102,"x_max":780,"o":"m 305 1119 l 305 1051 l 102 1051 l 102 1289 l 543 1289 l 543 1356 l 780 1356 l 780 1119 l 305 1119 m 780 -136 l 543 -136 l 543 0 l 271 0 q 102 170 102 0 l 102 454 l 339 523 q 543 712 543 592 l 543 848 l 339 848 l 339 746 l 373 746 l 373 610 l 203 610 q 102 678 102 610 l 102 848 q 271 1017 102 1017 l 610 1017 q 780 848 780 1017 l 780 712 q 390 397 766 513 l 339 379 l 339 170 l 543 170 l 543 407 l 780 407 l 780 -136 z "},"ា":{"ha":441,"x_min":-68,"x_max":339,"o":"m 102 0 l 102 848 l -68 848 l -68 1017 l 170 1017 q 339 848 339 1017 l 339 0 l 102 0 z "},"ិ":{"ha":0,"x_min":-712,"x_max":-102,"o":"m -712 1187 q -651 1339 -712 1289 q -468 1390 -590 1390 q -275 1339 -367 1390 q -102 1187 -183 1289 l -102 1119 l -712 1119 l -712 1187 m -468 1255 q -529 1238 -509 1255 q -549 1187 -549 1221 l -232 1187 q -327 1238 -267 1221 q -468 1255 -387 1255 z "},"ី":{"ha":0,"x_min":-712,"x_max":-102,"o":"m -712 1187 q -651 1339 -712 1289 q -468 1390 -590 1390 q -342 1369 -403 1390 q -224 1306 -281 1348 l -224 1424 l -102 1424 l -102 1119 l -712 1119 l -712 1187 m -468 1255 q -529 1238 -509 1255 q -549 1187 -549 1221 l -232 1187 q -327 1238 -267 1221 q -468 1255 -387 1255 z "},"ឹ":{"ha":0,"x_min":-712,"x_max":-68,"o":"m -712 1187 q -651 1339 -712 1289 q -470 1390 -591 1390 q -336 1366 -400 1390 q -208 1423 -306 1423 q -103 1394 -138 1423 q -68 1305 -68 1364 q -121 1203 -68 1231 q -108 1187 -114 1195 l -108 1119 l -712 1119 l -712 1187 m -148 1305 q -163 1343 -148 1331 q -208 1356 -178 1356 q -263 1330 -251 1356 q -174 1259 -217 1301 q -148 1305 -148 1272 m -470 1255 q -530 1238 -511 1255 q -551 1187 -551 1221 l -237 1187 q -331 1238 -272 1221 q -470 1255 -390 1255 z "},"ឺ":{"ha":0,"x_min":-712,"x_max":-102,"o":"m -712 1187 q -651 1339 -712 1289 q -468 1390 -590 1390 q -346 1371 -405 1390 l -346 1424 l -264 1424 l -264 1333 q -183 1273 -222 1308 l -183 1424 l -102 1424 l -102 1119 l -712 1119 l -712 1187 m -468 1255 q -529 1238 -509 1255 q -549 1187 -549 1221 l -232 1187 q -327 1238 -267 1221 q -468 1255 -387 1255 z "},"ុ":{"ha":0,"x_min":-305,"x_max":-102,"o":"m -102 -68 l -102 -475 l -305 -475 l -305 -68 l -102 -68 z "},"ូ":{"ha":0,"x_min":-543,"x_max":-102,"o":"m -543 -68 l -407 -68 l -407 -373 l -305 -373 l -305 -68 l -102 -68 l -102 -373 q -237 -475 -102 -475 l -407 -475 q -543 -373 -543 -475 l -543 -68 z "},"ួ":{"ha":0,"x_min":-576,"x_max":-102,"o":"m -576 -68 l -441 -68 l -441 -346 l -373 -258 l -305 -346 l -305 -68 l -102 -68 l -102 -475 l -305 -475 l -373 -387 l -441 -475 l -576 -475 l -576 -68 z "},"ើ":{"ha":0,"x_min":-712,"x_max":-102,"o":"m -712 1187 q -651 1339 -712 1289 q -468 1390 -590 1390 q -342 1369 -403 1390 q -224 1306 -281 1348 l -224 1424 l -102 1424 l -102 1119 l -712 1119 l -712 1187 m -468 1255 q -529 1238 -509 1255 q -549 1187 -549 1221 l -232 1187 q -327 1238 -267 1221 q -468 1255 -387 1255 z "},"ឿ":{"ha":441,"x_min":-407,"x_max":339,"o":"m -163 1322 q -224 1305 -203 1322 q -244 1255 -244 1289 l 73 1255 q -22 1305 37 1289 q -163 1322 -81 1322 m 203 1286 q 339 1119 339 1236 l 339 -339 q 170 -475 339 -475 l -170 -475 q -339 -339 -339 -475 l -339 -68 l -102 -68 l -102 -339 l 102 -339 l 102 1119 q 0 1187 102 1187 l -407 1187 l -407 1255 q -346 1407 -407 1356 q -163 1458 -285 1458 q -41 1438 -100 1458 l -41 1492 l 41 1492 l 41 1401 q 122 1341 83 1376 l 122 1492 l 203 1492 l 203 1286 z "},"ៀ":{"ha":441,"x_min":-339,"x_max":339,"o":"m 102 1221 l -102 1221 l -102 1153 l -339 1153 l -339 1594 l -102 1594 l -102 1356 l 170 1356 q 339 1221 339 1356 l 339 -339 q 170 -475 339 -475 l -170 -475 q -339 -339 -339 -475 l -339 -68 l -102 -68 l -102 -339 l 102 -339 l 102 1221 z "},"េ":{"ha":441,"x_min":0,"x_max":407,"o":"m 102 678 l 0 785 l 136 1017 l 339 1017 l 339 848 l 142 848 l 339 678 l 339 170 l 407 170 l 407 0 l 102 0 l 102 678 z "},"ែ":{"ha":441,"x_min":0,"x_max":441,"o":"m 102 678 l 0 785 l 136 1017 l 339 1017 l 339 848 l 142 848 l 339 678 l 339 170 l 407 170 l 407 0 l 102 0 l 102 678 m 0 1390 l 258 1390 l 258 1255 l 203 1255 l 203 1207 l 258 1207 q 339 1390 339 1207 l 441 1390 q 258 1085 441 1085 l 0 1085 l 0 1390 z "},"ៃ":{"ha":441,"x_min":0,"x_max":407,"o":"m 102 678 l 0 785 l 136 1017 l 339 1017 l 339 848 l 142 848 l 339 678 l 339 170 l 407 170 l 407 0 l 102 0 l 102 678 m 170 1187 l 170 1289 l 136 1289 l 136 1255 l 34 1255 l 34 1424 q 0 1458 34 1458 l 0 1526 q 136 1424 136 1526 l 136 1390 l 339 1390 l 339 1085 l 34 1085 l 34 1187 l 170 1187 z "},"ោ":{"ha":441,"x_min":-68,"x_max":339,"o":"m 102 0 l 102 848 l -68 848 l -68 1017 l 170 1017 q 339 848 339 1017 l 339 0 l 102 0 z "},"ៅ":{"ha":441,"x_min":-68,"x_max":339,"o":"m 102 1017 l 102 1322 l 0 1322 l 0 1492 l 339 1492 l 339 0 l 102 0 l 102 848 l -68 848 l -68 1017 l 102 1017 z "},"ំ":{"ha":0,"x_min":-644,"x_max":-237,"o":"m -441 1390 q -474 1381 -458 1390 q -499 1356 -490 1373 q -509 1322 -509 1340 q -499 1289 -509 1305 q -474 1263 -490 1272 q -441 1255 -458 1255 q -407 1263 -423 1255 q -382 1289 -391 1272 q -373 1322 -373 1305 q -382 1356 -373 1340 q -407 1381 -391 1373 q -441 1390 -423 1390 m -441 1526 q -341 1500 -389 1526 q -265 1424 -292 1474 q -237 1322 -237 1375 q -264 1221 -237 1270 q -339 1146 -291 1173 q -441 1119 -388 1119 q -542 1146 -493 1119 q -617 1221 -590 1173 q -644 1322 -644 1270 q -617 1424 -644 1375 q -541 1500 -589 1474 q -441 1526 -492 1526 z "},"ះ":{"ha":610,"x_min":102,"x_max":509,"o":"m 305 271 q 272 262 288 271 q 247 237 256 254 q 237 203 237 221 q 246 170 237 186 q 271 144 255 153 q 305 136 288 136 q 339 144 323 136 q 364 170 355 153 q 373 203 373 186 q 364 237 373 221 q 338 262 355 254 q 305 271 322 271 m 305 407 q 405 381 356 407 q 481 306 454 355 q 509 203 509 256 q 482 102 509 151 q 407 27 455 54 q 305 0 358 0 q 204 27 252 0 q 129 102 155 54 q 102 203 102 151 q 129 306 102 256 q 205 381 157 355 q 305 407 254 407 m 305 882 q 272 873 288 882 q 247 848 256 864 q 237 814 237 831 q 246 780 237 796 q 271 755 255 764 q 305 746 288 746 q 339 755 323 746 q 364 780 355 764 q 373 814 373 796 q 364 848 373 831 q 338 873 355 864 q 305 882 322 882 m 305 1017 q 405 991 356 1017 q 481 916 454 965 q 509 814 509 867 q 482 712 509 761 q 407 637 455 664 q 305 610 358 610 q 204 637 252 610 q 129 712 155 664 q 102 814 102 761 q 129 916 102 867 q 205 991 157 965 q 305 1017 254 1017 z "},"ៈ":{"ha":407,"x_min":102,"x_max":305,"o":"m 203 305 q 253 292 229 305 q 291 254 277 279 q 305 203 305 230 q 292 153 305 177 q 254 115 278 129 q 203 102 230 102 q 153 115 177 102 q 115 153 129 129 q 102 203 102 177 q 115 254 102 230 q 153 292 129 279 q 203 305 178 305 m 203 916 q 253 902 229 916 q 291 865 277 889 q 305 814 305 840 q 292 763 305 787 q 254 726 278 739 q 203 712 230 712 q 153 726 177 712 q 115 763 129 739 q 102 814 102 787 q 115 865 102 840 q 153 902 129 889 q 203 916 178 916 z "},"៉":{"ha":0,"x_min":-627,"x_max":-254,"o":"m -627 1119 l -627 1526 l -492 1526 l -492 1119 l -627 1119 m -390 1119 l -390 1526 l -254 1526 l -254 1119 l -390 1119 z "},"៊":{"ha":0,"x_min":-780,"x_max":-102,"o":"m -780 1085 l -780 1255 l -493 1255 l -441 1221 l -388 1255 l -102 1255 l -102 1085 l -780 1085 z "},"់":{"ha":0,"x_min":-526,"x_max":-356,"o":"m -526 1119 l -526 1526 l -356 1526 l -356 1119 l -526 1119 z "},"៌":{"ha":0,"x_min":-746,"x_max":-136,"o":"m -536 1194 l -136 1194 l -136 1119 l -746 1119 l -746 1322 l -450 1322 q -345 1424 -345 1322 l -136 1424 l -136 1322 q -326 1255 -136 1255 l -536 1255 l -536 1194 z "},"៍":{"ha":0,"x_min":-746,"x_max":-136,"o":"m -536 1194 l -437 1194 l -437 1119 l -746 1119 l -746 1322 l -450 1322 q -345 1424 -345 1322 l -136 1424 l -136 1322 q -326 1255 -136 1255 l -536 1255 l -536 1194 z "},"៎":{"ha":0,"x_min":-644,"x_max":-237,"o":"m -373 1390 l -237 1390 l -237 1255 l -373 1255 l -373 1119 l -509 1119 l -509 1255 l -644 1255 l -644 1390 l -509 1390 l -509 1526 l -373 1526 l -373 1390 z "},"៏":{"ha":0,"x_min":-746,"x_max":-136,"o":"m -746 1390 l -452 1390 q -347 1458 -347 1390 l -136 1458 l -136 1390 q -325 1322 -136 1322 l -533 1322 l -533 1200 l -441 1259 l -347 1200 l -347 1268 l -136 1268 l -136 1119 l -347 1119 l -441 1178 l -532 1119 l -533 1120 l -533 1119 l -746 1119 l -746 1390 z "},"័":{"ha":0,"x_min":-610,"x_max":0,"o":"m -610 1356 l -343 1356 l -343 1289 l -419 1289 l -419 1255 l -191 1255 l -191 1390 l 0 1390 l 0 1221 q -153 1119 0 1119 l -610 1119 l -610 1356 z "},"៑":{"ha":0,"x_min":-780,"x_max":-102,"o":"m -780 1119 l -780 1289 l -102 1289 l -102 1119 l -780 1119 z "},"្":{"ha":0,"x_min":-644,"x_max":-237,"o":"m -373 -203 l -237 -203 l -237 -339 l -373 -339 l -373 -475 l -509 -475 l -509 -339 l -644 -339 l -644 -203 l -509 -203 l -509 -68 l -373 -68 l -373 -203 z "},"៓":{"ha":0,"x_min":-746,"x_max":-136,"o":"m -440 1436 q -479 1425 -460 1436 q -509 1396 -498 1415 q -519 1356 -519 1377 q -509 1317 -519 1336 q -479 1288 -498 1298 q -440 1277 -460 1277 q -400 1288 -419 1277 q -371 1317 -381 1298 q -361 1356 -361 1336 q -372 1396 -361 1377 q -401 1425 -382 1415 q -440 1436 -419 1436 m -441 1594 q -290 1563 -363 1594 q -177 1475 -218 1533 q -136 1356 -136 1418 q -175 1238 -136 1295 q -288 1150 -215 1181 q -441 1119 -361 1119 q -591 1150 -519 1119 q -705 1238 -664 1181 q -746 1356 -746 1295 q -705 1475 -746 1418 q -590 1563 -663 1533 q -441 1594 -517 1594 z "},"។":{"ha":882,"x_min":102,"x_max":780,"o":"m 102 1017 l 339 1017 l 339 895 q 543 1017 402 895 l 780 1017 l 780 0 l 543 0 l 543 845 q 339 746 443 746 l 102 746 l 102 1017 z "},"៕":{"ha":1221,"x_min":102,"x_max":1119,"o":"m 882 1017 l 1119 1017 l 1119 0 l 882 0 l 882 1017 m 102 1017 l 339 1017 l 339 895 q 543 1017 402 895 l 780 1017 l 780 0 l 543 0 l 543 845 q 339 746 443 746 l 102 746 l 102 1017 z "},"៖":{"ha":610,"x_min":34,"x_max":576,"o":"m 305 271 q 272 262 288 271 q 247 237 256 254 q 237 203 237 221 q 246 170 237 186 q 271 144 255 153 q 305 136 288 136 q 339 144 323 136 q 364 170 355 153 q 373 203 373 186 q 364 237 373 221 q 338 262 355 254 q 305 271 322 271 m 305 407 q 405 381 356 407 q 481 306 454 355 q 509 203 509 256 q 482 102 509 151 q 407 27 455 54 q 305 0 358 0 q 204 27 252 0 q 129 102 155 54 q 102 203 102 151 q 129 306 102 256 q 205 381 157 355 q 305 407 254 407 m 305 882 q 272 873 288 882 q 247 848 256 864 q 237 814 237 831 q 246 780 237 796 q 271 755 255 764 q 305 746 288 746 q 339 755 323 746 q 364 780 355 764 q 373 814 373 796 q 364 848 373 831 q 338 873 355 864 q 305 882 322 882 m 305 1017 q 405 991 356 1017 q 481 916 454 965 q 509 814 509 867 q 482 712 509 761 q 407 637 455 664 q 305 610 358 610 q 204 637 252 610 q 129 712 155 664 q 102 814 102 761 q 129 916 102 867 q 205 991 157 965 q 305 1017 254 1017 m 34 475 l 34 543 l 576 543 l 576 475 l 34 475 z "},"ៗ":{"ha":882,"x_min":102,"x_max":780,"o":"m 102 1017 l 339 1017 l 441 922 l 543 1017 l 780 1017 l 780 0 l 543 0 l 543 841 l 441 746 l 339 841 l 339 746 l 102 746 l 102 1017 z "},"៘":{"ha":3086,"x_min":102,"x_max":2984,"o":"m 102 1017 l 339 1017 l 339 895 q 543 1017 402 895 l 780 1017 l 780 0 l 543 0 l 543 845 q 339 746 443 746 l 102 746 l 102 1017 m 1662 170 l 1865 170 l 1865 678 l 1763 785 l 1899 1017 l 2102 1017 l 2102 848 l 1906 848 l 2102 678 l 2102 170 q 1933 0 2102 0 l 1594 0 q 1424 170 1424 0 l 1424 848 l 1221 848 l 1221 170 l 1289 170 l 1289 0 l 983 0 l 983 848 q 1153 1017 983 1017 l 1492 1017 q 1662 848 1662 1017 l 1662 170 m 2306 1017 l 2543 1017 l 2543 895 q 2747 1017 2606 895 l 2984 1017 l 2984 0 l 2747 0 l 2747 845 q 2543 746 2647 746 l 2306 746 l 2306 1017 z "},"៙":{"ha":949,"x_min":102,"x_max":848,"o":"m 475 0 q 102 509 102 0 q 475 1017 102 1017 q 848 509 848 1017 q 475 0 848 0 m 475 932 q 195 509 195 932 q 475 85 195 85 q 755 509 755 85 q 475 932 755 932 m 475 170 q 288 509 288 170 q 475 848 288 848 q 661 509 661 848 q 475 170 661 170 m 475 763 q 382 509 382 763 q 475 254 382 254 q 568 509 568 254 q 475 763 568 763 z "},"៚":{"ha":1899,"x_min":102,"x_max":1797,"o":"m 356 1017 q 613 739 613 1017 q 401 555 613 555 q 358 601 358 555 q 401 647 358 647 q 526 740 526 647 q 358 925 526 925 q 186 740 186 925 l 186 277 q 358 90 186 90 q 528 192 443 90 q 698 507 613 294 l 865 922 l 950 922 l 1162 248 l 1289 829 l 1373 829 l 1501 346 l 1586 553 l 1756 553 q 1797 507 1797 553 q 1756 460 1797 460 l 1628 460 l 1544 185 l 1458 185 l 1331 647 l 1204 92 l 1120 92 l 907 808 l 766 460 q 356 0 578 0 q 102 277 102 0 l 102 740 q 356 1017 102 1017 z "},"៛":{"ha":441,"x_min":0,"x_max":441,"o":"m 339 424 l 339 0 l 34 0 l 34 170 l 102 170 l 102 424 l 0 424 l 0 593 l 102 593 l 102 678 l 0 785 l 136 1017 l 339 1017 l 339 848 l 142 848 l 339 678 l 339 593 l 441 593 l 441 424 l 339 424 z "},"០":{"ha":882,"x_min":102,"x_max":780,"o":"m 339 170 l 543 170 l 543 848 l 339 848 l 339 170 m 102 848 q 271 1017 102 1017 l 610 1017 q 780 848 780 1017 l 780 170 q 610 0 780 0 l 271 0 q 102 170 102 0 l 102 848 z "},"១":{"ha":882,"x_min":102,"x_max":780,"o":"m 543 848 l 339 848 l 339 576 l 441 576 l 441 407 l 102 407 l 102 848 q 271 1017 102 1017 l 610 1017 q 780 848 780 1017 l 780 170 q 610 0 780 0 l 271 0 l 271 170 l 543 170 l 543 848 z "},"២":{"ha":1119,"x_min":34,"x_max":1017,"o":"m 1017 170 q 848 0 1017 0 l 271 0 q 102 170 102 0 l 102 1017 l 34 1017 l 34 1187 l 170 1187 q 339 1085 339 1187 l 339 170 l 780 170 l 780 836 l 712 751 l 644 836 l 644 644 l 678 644 l 678 512 l 407 512 l 407 1017 l 644 1017 l 712 933 l 780 1017 l 1017 1017 l 1017 170 z "},"៣":{"ha":1322,"x_min":102,"x_max":1221,"o":"m 543 0 l 543 848 l 339 848 l 339 170 l 407 170 l 407 0 l 102 0 l 102 848 q 271 1017 102 1017 l 1051 1017 q 1221 848 1221 1017 l 1221 0 l 983 0 l 983 848 l 780 848 l 780 0 l 543 0 z "},"៤":{"ha":882,"x_min":34,"x_max":780,"o":"m 339 170 l 597 170 l 441 304 l 441 543 q 475 636 441 593 q 610 678 509 678 l 780 678 l 780 543 l 678 543 l 678 270 l 780 170 l 746 0 l 305 0 q 153 42 203 0 q 102 170 102 85 l 102 1017 l 34 1017 l 34 1187 l 170 1187 q 339 1085 339 1187 l 339 170 z "},"៥":{"ha":882,"x_min":102,"x_max":780,"o":"m 102 746 l 216 818 q 178 832 197 823 q 122 882 142 850 q 102 949 102 914 l 102 1085 l 339 1085 l 339 916 l 543 916 l 543 1153 l 780 1153 l 780 916 q 644 780 780 780 l 339 780 l 339 170 l 604 170 l 441 304 l 441 509 q 475 602 441 559 q 610 644 509 644 l 780 644 l 780 509 l 678 509 l 678 270 l 780 170 l 746 0 l 305 0 q 153 43 203 0 q 102 170 102 85 l 102 746 z "},"៦":{"ha":882,"x_min":102,"x_max":780,"o":"m 780 170 q 610 0 780 0 l 271 0 q 102 170 102 0 l 102 441 q 271 610 102 610 l 441 610 l 441 441 l 339 441 l 339 170 l 543 170 l 543 848 l 339 848 l 339 780 l 102 780 l 102 1255 l 339 1255 l 339 1017 l 610 1017 q 780 848 780 1017 l 780 170 z "},"៧":{"ha":1221,"x_min":102,"x_max":1119,"o":"m 780 170 l 882 170 l 882 1221 l 1119 1221 l 1119 170 q 949 0 1119 0 l 712 0 q 543 170 543 0 l 543 819 l 441 720 l 339 819 l 339 170 l 407 170 l 407 0 l 102 0 l 102 1017 l 339 1017 l 441 918 l 543 1017 l 780 1017 l 780 170 z "},"៨":{"ha":882,"x_min":102,"x_max":780,"o":"m 102 882 q 271 1017 102 1017 l 543 1017 l 543 1255 l 780 1255 l 780 814 l 543 814 l 543 882 l 339 882 l 339 199 l 441 298 l 543 199 l 543 475 l 441 475 l 441 644 l 678 644 q 780 543 780 644 l 780 0 l 543 0 l 441 99 l 339 0 l 102 0 l 102 882 z "},"៩":{"ha":882,"x_min":102,"x_max":780,"o":"m 678 543 l 441 543 q 339 475 339 543 l 339 136 l 543 136 l 543 237 l 441 237 l 441 441 l 656 441 q 780 339 780 441 l 780 136 q 610 0 780 0 l 271 0 q 102 136 102 0 l 102 543 q 175 627 128 595 q 102 712 128 659 l 102 882 q 271 1017 102 1017 l 543 1017 l 543 1255 l 780 1255 l 780 814 l 543 814 l 543 882 l 339 882 l 339 780 q 441 712 339 712 l 678 712 l 678 543 z "},"​":{"ha":0,"x_min":0,"x_max":0,"o":""},"◌":{"ha":882,"x_min":203,"x_max":746,"o":"m 647 170 q 680 141 680 170 q 649 114 680 114 l 647 114 q 614 142 614 115 q 647 170 614 170 m 693 275 q 727 247 727 275 q 693 219 727 219 q 660 247 660 220 q 693 275 660 275 m 566 77 q 600 49 600 77 q 566 21 600 21 q 533 50 533 22 q 566 77 533 77 m 418 56 q 452 28 452 56 q 420 1 452 1 l 418 1 q 385 28 385 1 q 418 56 385 56 m 320 140 q 354 111 354 140 q 322 84 354 84 l 320 84 q 287 112 287 85 q 320 140 287 140 m 265 244 q 299 216 299 244 q 267 189 299 189 l 265 189 q 232 216 232 189 q 265 244 232 244 m 239 353 q 273 325 273 353 q 241 298 273 298 l 239 298 q 206 326 206 298 q 239 353 206 353 m 237 463 q 271 435 271 463 q 239 408 271 408 l 237 408 q 203 435 203 408 q 237 463 203 463 m 253 573 q 287 545 287 573 q 255 517 287 517 l 253 517 q 220 545 220 518 q 253 573 220 573 m 296 680 q 329 652 329 680 q 296 624 329 624 q 262 652 262 625 q 296 680 262 680 m 374 777 q 407 748 407 777 q 376 721 407 721 l 374 721 q 340 749 340 722 q 374 777 340 777 m 500 812 q 534 783 534 812 q 503 756 534 756 l 500 756 q 467 784 467 757 q 500 812 467 812 m 611 741 q 645 713 645 741 q 613 686 645 686 l 611 686 q 578 713 578 686 q 611 741 578 741 m 678 628 q 712 600 712 628 q 680 572 712 572 l 678 572 q 645 600 645 573 q 678 628 645 628 m 707 519 q 741 491 741 519 q 707 463 741 463 q 673 492 673 464 q 707 519 673 519 m 712 393 q 746 364 746 393 q 714 337 746 337 l 712 337 q 679 365 679 338 q 712 393 679 393 z "}}}
